<svg id="Group_20319" xmlns="http://www.w3.org/2000/svg" width="43.75" height="56.25" viewBox="0 0 43.75 56.25">
  <g id="Path_20052">
    <path id="Path_21822" data-name="Path 21822" d="M39.583,55.5H4.167A3.421,3.421,0,0,1,.75,52.083V10.727L10.727.75H39.583A3.421,3.421,0,0,1,43,4.167V52.083A3.421,3.421,0,0,1,39.583,55.5Z" fill="#f6f7fb"/>
    <path id="Path_21823" data-name="Path 21823" d="M11.038,1.5,1.5,11.038V52.083A2.67,2.67,0,0,0,4.167,54.75H39.583a2.67,2.67,0,0,0,2.667-2.667V4.167A2.67,2.67,0,0,0,39.583,1.5H11.038M10.417,0H39.583A4.166,4.166,0,0,1,43.75,4.167V52.083a4.166,4.166,0,0,1-4.167,4.167H4.167A4.166,4.166,0,0,1,0,52.083V10.417Z" fill="#2a3a8d"/>
    <path id="Path_21855" data-name="Path 21855" d="M.578,0V-5.687h1.68A2.635,2.635,0,0,1,3.6-5.352a2.291,2.291,0,0,1,.9.953,3.025,3.025,0,0,1,.32,1.414V-2.7A3.013,3.013,0,0,1,4.5-1.277a2.263,2.263,0,0,1-.918.945A2.757,2.757,0,0,1,2.215,0Zm.988-4.891v4.1h.645A1.484,1.484,0,0,0,3.4-1.275a2.118,2.118,0,0,0,.424-1.4v-.316a2.174,2.174,0,0,0-.4-1.414,1.426,1.426,0,0,0-1.168-.488Zm8.348,0H8.141V0H7.16V-4.891H5.4v-.8H9.914Zm2.813,3.652,1.445-4.449h1.086L13.211,0h-.957L10.215-5.687H11.3Zm6.145-.227a.687.687,0,0,0-.264-.578,3.172,3.172,0,0,0-.951-.41,4.593,4.593,0,0,1-1.094-.461,1.46,1.46,0,0,1-.777-1.273,1.386,1.386,0,0,1,.561-1.133A2.269,2.269,0,0,1,17.8-5.766a2.458,2.458,0,0,1,1.059.219,1.738,1.738,0,0,1,.73.623,1.6,1.6,0,0,1,.266.9h-.984a.891.891,0,0,0-.279-.7,1.153,1.153,0,0,0-.8-.252,1.2,1.2,0,0,0-.752.207.689.689,0,0,0-.268.578.624.624,0,0,0,.289.521,3.33,3.33,0,0,0,.953.406,4.384,4.384,0,0,1,1.066.449,1.7,1.7,0,0,1,.59.578,1.506,1.506,0,0,1,.188.764,1.354,1.354,0,0,1-.545,1.131,2.364,2.364,0,0,1-1.479.42A2.778,2.778,0,0,1,16.7-.15a1.906,1.906,0,0,1-.8-.631,1.572,1.572,0,0,1-.287-.937H16.6a.92.92,0,0,0,.32.75,1.4,1.4,0,0,0,.918.266,1.219,1.219,0,0,0,.775-.209A.674.674,0,0,0,18.871-1.465Zm3.859.227,1.445-4.449h1.086L23.215,0h-.957L20.219-5.687H21.3Z" transform="translate(8.955 34.048)" fill="#076bcf"/>
    <g id="Group_21843" transform="translate(-0.711 4.981)">
      <g id="Path_18118">
        <path id="Path_21832" data-name="Path 21832" d="M21,.95H.678A.207.207,0,0,1,.5.725.208.208,0,0,1,.677.5H21a.209.209,0,0,1,.178.225A.209.209,0,0,1,21,.95Z" transform="translate(11.244 33.067)" fill="#0875e2"/>
        <path id="Path_21833" data-name="Path 21833" d="M.677,0H21a.7.7,0,0,1,.678.725A.7.7,0,0,1,21,1.45H.678A.7.7,0,0,1,0,.725.7.7,0,0,1,.677,0Z" transform="translate(11.326 33.067)" fill="#2183e5"/>
      </g>
      <g id="Path_18293">
        <path id="Path_21834" data-name="Path 21834" d="M21,.95H.678A.207.207,0,0,1,.5.725.208.208,0,0,1,.677.5H21a.209.209,0,0,1,.178.225A.209.209,0,0,1,21,.95Z" transform="translate(11.244 36.419)" fill="#0875e2"/>
        <path id="Path_21835" data-name="Path 21835" d="M.677,0H21a.7.7,0,0,1,.678.725A.7.7,0,0,1,21,1.45H.678A.7.7,0,0,1,0,.725.7.7,0,0,1,.677,0Z" transform="translate(11.244 36.419)" fill="#2183e5"/>
      </g>
      <g id="Path_18294">
        <path id="Path_21836" data-name="Path 21836" d="M9.477.95H.523A1.031,1.031,0,0,1,.5.725,1.024,1.024,0,0,1,.523.5H9.477A1.024,1.024,0,0,1,9.5.725,1.031,1.031,0,0,1,9.477.95Z" transform="translate(11.244 39.771)" fill="#0875e2"/>
        <path id="Path_21837" data-name="Path 21837" d="M.313,0H9.687C9.86,0,10,.325,10,.725s-.14.725-.313.725H.313C.14,1.45,0,1.125,0,.725S.14,0,.313,0Z" transform="translate(11.244 39.771)" fill="#2183e5"/>
      </g>
    </g>
    <g id="Group_22368" data-name="Group 22368" transform="translate(-1514.975 -713.952)">
      <g id="Group_14736" transform="translate(1529.509 724)">
        <path id="Ellipse_649" d="M6.677.5A6.285,6.285,0,0,0,.5,6.873a6.285,6.285,0,0,0,6.177,6.374,6.285,6.285,0,0,0,6.177-6.374A6.285,6.285,0,0,0,6.677.5m0-.5a6.777,6.777,0,0,1,6.677,6.874,6.777,6.777,0,0,1-6.677,6.874A6.777,6.777,0,0,1,0,6.873,6.777,6.777,0,0,1,6.677,0Z" transform="translate(0)" fill="#002e76"/>
        <g id="Group_14716" transform="translate(1.428 1.622)">
          <g id="Group_14632" transform="translate(0 0)">
            <path id="Path_10767" d="M.17,9.629a5.322,5.322,0,0,0,4.665,4.209A5.331,5.331,0,0,1,.17,9.629Z" transform="translate(-0.058 -3.226)" fill="none"/>
            <path id="Path_10768" d="M5.476,0A5.326,5.326,0,0,1,10.8,5.32,5.317,5.317,0,0,0,.466,3.546h0A5.324,5.324,0,0,1,5.476,0Z" transform="translate(-0.157 0)" fill="none"/>
            <path id="Path_10769" d="M0,8c0,.009,0,.019,0,.028C0,8.019,0,8.009,0,8Z" transform="translate(0 -2.68)" fill="#0875e2"/>
            <path id="Path_10770" d="M5.376,0A5.324,5.324,0,0,0,.367,3.546l.634.2A4.645,4.645,0,1,1,.817,6.262L.168,6.4a5.331,5.331,0,0,0,4.665,4.21,5.426,5.426,0,0,0,1.087,0,5.327,5.327,0,0,0,4.775-5.265c0-.009,0-.019,0-.028A5.326,5.326,0,0,0,5.376,0Z" transform="translate(-0.056 0)" fill="#076bcf"/>
            <circle id="Ellipse_670" cx="0.332" cy="0.332" r="0.332" transform="translate(0.295 3.312)" fill="#076bcf"/>
            <circle id="Ellipse_671" cx="0.332" cy="0.332" r="0.332" transform="translate(0.105 6.005)" fill="#076bcf"/>
          </g>
          <circle id="Ellipse_672" cx="0.332" cy="0.332" r="0.332" transform="translate(0.133 4.588)" fill="#076bcf"/>
        </g>
      </g>
      <path id="Path_22131" d="M-287.874,228.033l-.014-.235a3,3,0,0,1,.326-1.553,3.157,3.157,0,0,1,1.353-1.346c-.009-.215-.006-.426,0-.594a3.319,3.319,0,0,1-1.116-.965,2.921,2.921,0,0,1-.548-1.481c-.008-.094-.012-.19-.016-.283,0-.042,0-.085-.006-.129l-.013-.263h4.662v.25c0,.031,0,.062,0,.093,0,.068,0,.138,0,.212a3.014,3.014,0,0,1-.591,1.641,3.381,3.381,0,0,1-1.087.925c0,.177,0,.367,0,.588a3.356,3.356,0,0,1,1.119.971,3.014,3.014,0,0,1,.561,1.888.382.382,0,0,1-.006.056v.009l-.03.215Zm1.893-2.689a2.658,2.658,0,0,0-1.137,1.131,2.5,2.5,0,0,0-.274,1.057h3.646a2.512,2.512,0,0,0-.467-1.374,2.85,2.85,0,0,0-.993-.846.381.381,0,0,1-.222-.379c.006-.252.006-.46,0-.653a.4.4,0,0,1,.243-.4,2.874,2.874,0,0,0,.946-.8,2.514,2.514,0,0,0,.491-1.368q0-.014,0-.028h-3.639c0,.045.005.089.009.133a2.421,2.421,0,0,0,.454,1.228,2.814,2.814,0,0,0,.98.835.4.4,0,0,1,.233.4c-.005.166-.01.381,0,.6A.453.453,0,0,1-285.981,225.344Z" transform="translate(1821.759 506.391)" fill="#002e77"/>
      <g id="Group_22369" data-name="Group 22369" transform="translate(-2 -1.137)">
        <path id="Path_21853" data-name="Path 21853" d="M40.338,1.911c.668-.561,1.114-1.825.839-1.88a6.632,6.632,0,0,0-1.54.306C39.094.4,38.5-.253,38.17.112c-.27.3.194,1.376.919,1.846-2.164,1.063-5.206,6.4.1,6.791,7.342.535,3.665-5.8,1.148-6.838Z" transform="translate(1502.482 732.135)" fill="#f5f5f5"/>
        <path id="Path_21853_-_Outline" data-name="Path 21853 - Outline" d="M38.425-.249h0a1.569,1.569,0,0,1,.6.176,1.485,1.485,0,0,0,.532.164l.046,0a4.708,4.708,0,0,0,.485-.122,4,4,0,0,1,.965-.2.88.88,0,0,1,.173.016.348.348,0,0,1,.266.267,2.7,2.7,0,0,1-.73,1.787A6.451,6.451,0,0,1,42.825,3.85,4.457,4.457,0,0,1,43.722,7c-.183.925-.973,2.029-3.7,2.029-.27,0-.557-.011-.855-.033-2.291-.168-2.97-1.224-3.137-2.081-.349-1.8,1.247-4.1,2.611-4.992A2.641,2.641,0,0,1,37.852.509a.671.671,0,0,1,.133-.565A.579.579,0,0,1,38.425-.249Zm1.134.84a1.86,1.86,0,0,1-.734-.206,1.3,1.3,0,0,0-.4-.134h0a.078.078,0,0,0-.069.03.41.41,0,0,0,0,.231,2.182,2.182,0,0,0,.866,1.236l.37.24-.4.194a5.428,5.428,0,0,0-1.953,1.957,3.987,3.987,0,0,0-.72,2.682c.194,1,1.1,1.562,2.682,1.678.285.021.561.031.818.031,1.315,0,2.939-.282,3.205-1.626a3.976,3.976,0,0,0-.822-2.777,5.466,5.466,0,0,0-2.166-1.986l-.382-.157.316-.265A2.874,2.874,0,0,0,41.006.271a4.31,4.31,0,0,0-.78.176,4.859,4.859,0,0,1-.552.137h-.007A.912.912,0,0,1,39.558.591Z" transform="translate(1502.482 732.135)" fill="#2a3a8d"/>
        <path id="Path_21854" data-name="Path 21854" d="M545.921,131.8l0,.013a.921.921,0,0,1-.335.579,1.625,1.625,0,0,1-.845.294h-.007l1.172,1.005a.191.191,0,0,1,.049.081.165.165,0,0,1-.027.13.183.183,0,0,1-.079.054.163.163,0,0,1-.136-.027l-.005,0-1.467-1.258-.014-.014a.161.161,0,0,1,.029-.231.4.4,0,0,1,.212-.027,1.82,1.82,0,0,0,.8-.163.631.631,0,0,0,.341-.428V131.8H544.2a.154.154,0,0,1-.009-.307h1.417a.916.916,0,0,0-.823-.615H544.2a.159.159,0,0,1-.153-.145.179.179,0,0,1,.025-.094.163.163,0,0,1,.121-.069h2.08c.015,0,0-.013.06.012a.16.16,0,0,1,.094.133.2.2,0,0,1-.017.081.159.159,0,0,1-.128.081h-.708a.986.986,0,0,1,.348.614v0h.351l.024,0a.157.157,0,0,1,.13.143.2.2,0,0,1-.017.081.159.159,0,0,1-.128.081h-.359Z" transform="translate(996.969 605.575)" fill="#2a3a8d" fill-rule="evenodd"/>
        <path id="Path_21854_-_Outline" data-name="Path 21854 - Outline" d="M546.285,130.465a.217.217,0,0,1,.085.024.26.26,0,0,1,.155.216v.008a.3.3,0,0,1-.025.122l0,.009a.259.259,0,0,1-.208.133h-.481a1.083,1.083,0,0,1,.2.416l.308,0a.257.257,0,0,1,.213.234v.007a.3.3,0,0,1-.025.122l0,.009a.259.259,0,0,1-.208.133H546a1.018,1.018,0,0,1-.357.57l0,0a1.723,1.723,0,0,1-.671.285l1,.861a.292.292,0,0,1,.075.124l0,.009a.266.266,0,0,1-.044.208l-.005.007a.283.283,0,0,1-.123.084l-.009,0a.264.264,0,0,1-.219-.044l-.011-.008-1.467-1.258a.237.237,0,0,1-.026-.027.261.261,0,0,1,.047-.374l.01-.007.011,0a.5.5,0,0,1,.258-.035,1.709,1.709,0,0,0,.75-.154.526.526,0,0,0,.243-.242H544.2a.254.254,0,0,1-.015-.507h1.269a.811.811,0,0,0-.673-.415H544.2a.261.261,0,0,1-.253-.236v-.007a.279.279,0,0,1,.039-.147l0-.007a.262.262,0,0,1,.2-.111h2.074A.112.112,0,0,1,546.285,130.465Zm.04.253a.06.06,0,0,0-.035-.046l-.009,0H544.2a.063.063,0,0,0-.042.023.079.079,0,0,0-.009.034.059.059,0,0,0,.057.05h.582a1.012,1.012,0,0,1,.917.682l.046.133h-1.554a.054.054,0,0,0,.005.107h1.509v.116l0,.011a.728.728,0,0,1-.395.5,1.915,1.915,0,0,1-.846.173h-.012a.3.3,0,0,0-.145.015.061.061,0,0,0,0,.081l1.467,1.259a.063.063,0,0,0,.048.012.084.084,0,0,0,.029-.02.065.065,0,0,0,.009-.043.091.091,0,0,0-.02-.033l-1.374-1.178h.274a1.523,1.523,0,0,0,.787-.274.818.818,0,0,0,.3-.514l.012-.1h.443a.059.059,0,0,0,.042-.026.1.1,0,0,0,.006-.032.057.057,0,0,0-.044-.048h-.46V131.5a.884.884,0,0,0-.312-.544l-.215-.177h.983a.059.059,0,0,0,.042-.026A.1.1,0,0,0,546.326,130.717Z" transform="translate(996.969 605.575)" fill="#2a3a8d"/>
      </g>
    </g>
  </g>
  <path id="Path_20053" d="M.382,10.962H-9.165v-1.5h8.8V0h1.5V10.212A.75.75,0,0,1,.382,10.962Z" transform="translate(10.556 0.521)" fill="#2a3a8d"/>
</svg>
